<?xml version="1.0" encoding="UTF-8"?>
<svg id="Layer_2" data-name="Layer 2" xmlns="http://www.w3.org/2000/svg" xmlns:xlink="http://www.w3.org/1999/xlink" viewBox="0 0 123.57 116.2">
  <defs>
    <style>
      .cls-1 {
        fill: #fff;
      }

      .cls-2 {
        fill: url(#linear-gradient);
      }
    </style>
    <linearGradient id="linear-gradient" x1="8.62" y1="107.45" x2="90.89" y2="13.07" gradientUnits="userSpaceOnUse">
      <stop offset="0" stop-color="#72ebe5"/>
      <stop offset="1" stop-color="#31d6eb"/>
    </linearGradient>
  </defs>
  <g id="Layer_1-2" data-name="Layer 1">
    <g>
      <path class="cls-2" d="M0,10.39V105.81c0,5.74,4.65,10.39,10.39,10.39H75.96c26.3,0,47.61-21.32,47.61-47.61v-20.97C123.57,21.32,102.26,0,75.96,0H10.39C4.65,0,0,4.65,0,10.39Z"/>
      <path class="cls-1" d="M21.8,41.65c1.56-11.3,11.28-20.02,23.01-20.02h41.36c5.53,0,10.01,4.49,10.01,10.01s-4.48,10.01-10.01,10.01H21.8Z"/>
      <path class="cls-1" d="M95.96,74.55c-1.56,11.3-11.28,20.01-23.01,20.01H31.59c-2.76,0-5.27-1.12-7.08-2.93s-2.93-4.31-2.93-7.08c0-5.53,4.48-10.01,10.01-10.01H95.96Z"/>
      <path class="cls-1" d="M28.39,61.3c-3.49-3.49-5.88-8.09-6.58-13.21h51.14c6.42,0,12.22,2.6,16.43,6.81,3.49,3.49,5.88,8.09,6.58,13.21H44.82c-6.42,0-12.22-2.6-16.43-6.81Z"/>
    </g>
  </g>
</svg>